# xmcd
#
# Track frame offsets: 
#        151
#        20415
#        27912
#        39318
#        48536
#        59487
#        65128
#        81895
#        88829
#        100612
#        112531
#        123795
#        143592
#        156644
#        163476
#        172629
#        183427
#        198054
#        206037
#        217888
#
# Disc length: 3000 seconds
#
# Revision: 1
# Processed by: cddbd v1.5.2PL0 Copyright (c) Steve Scherf et al.
# Submitted via: ExactAudioCopy v0.99pb5
#
DISCID=0c0bb614
DTITLE=Regensburger Domspatzen - Deutsche Volkslieder
DYEAR=1998
DGENRE=Chorus
TTITLE0=Musica, die ganz lieblich Kunst
TTITLE1=All mein Gedanken
TTITLE2=Ännchen von Tharau
TTITLE3=Mein Mädel hat einen Rosenmund
TTITLE4=Heidenröslein
TTITLE5=Kommt ein Vogel geflogen
TTITLE6=All meine Herzgedanken
TTITLE7=Studio auf einer Reis'
TTITLE8=Lieb Heimatland, ade !
TTITLE9=Die Loreley
TTITLE10=Als wir jüngst in Regensburg waren
TTITLE11=Waldesnacht
TTITLE12=Der Mond ist aufgegangen
TTITLE13=Nun ruhen alle Wälder
TTITLE14=Ständchen
TTITLE15=Abendständchen
TTITLE16=Ade zur guten Nacht
TTITLE17=Guten Abend, gut Nacht
TTITLE18=Wiegenlied
TTITLE19=Schlafe, mein Prinzchen
EXTD=YEAR: 1998
EXTT0=
EXTT1=
EXTT2=
EXTT3=
EXTT4=
EXTT5=
EXTT6=
EXTT7=
EXTT8=
EXTT9=
EXTT10=
EXTT11=
EXTT12=
EXTT13=
EXTT14=
EXTT15=
EXTT16=
EXTT17=
EXTT18=
EXTT19=
PLAYORDER=
